<?xml version="1.0" standalone="no"?>
<!DOCTYPE svg PUBLIC "-//W3C//DTD SVG 20010904//EN"
 "http://www.w3.org/TR/2001/REC-SVG-20010904/DTD/svg10.dtd">
<svg version="1.0" xmlns="http://www.w3.org/2000/svg"
 width="600.000000pt" height="600.000000pt" viewBox="0 0 600.000000 600.000000"
 preserveAspectRatio="xMidYMid meet">

<g transform="translate(0.000000,600.000000) scale(0.100000,-0.100000)"
fill="#000000" stroke="none">
<path d="M0 3000 l0 -3000 3000 0 3000 0 0 3000 0 3000 -3000 0 -3000 0 0
-3000z m2789 -1269 c83 4 121 -15 121 -61 0 -15 -7 -36 -16 -44 -22 -22 -31
-20 -11 2 23 25 22 69 -2 82 -11 5 -51 10 -90 10 l-71 0 0 -55 0 -54 73 -4 72
-3 -77 -2 -78 -2 2 128 c1 70 3 98 5 64 l4 -64 68 3z m100 87 c12 -21 13 -31
3 -53 -7 -15 -15 -25 -19 -22 -3 4 0 13 7 22 19 22 4 62 -27 74 -27 10 -27 10
-3 8 14 -1 30 -13 39 -29z m71 25 c0 -5 20 -39 44 -77 l43 -69 43 72 c23 39
47 74 52 77 5 3 -13 -31 -41 -76 -40 -64 -51 -91 -53 -128 l-2 -47 -3 49 c-3
36 -16 67 -54 127 -27 43 -45 79 -39 79 5 0 10 -3 10 -7z m252 -48 l-4 -55 69
-2 68 -2 -67 -3 -68 -4 0 -59 0 -59 83 -4 82 -3 -87 -2 -88 -2 0 125 c0 69 3
125 8 125 4 0 5 -25 4 -55z m338 -60 l85 -109 6 114 5 115 2 -130 c2 -110 0
-127 -12 -115 -7 8 -48 59 -91 113 -42 54 -80 95 -83 92 -4 -4 -10 -55 -13
-113 l-5 -107 -2 128 c-2 99 1 128 11 125 6 -3 50 -54 97 -113z m293 81 c-3
-19 -3 -46 1 -60 6 -25 10 -26 71 -26 86 0 84 -18 -2 -22 l-68 -3 -6 -55 c-4
-38 -6 -16 -7 73 -1 73 2 127 7 127 6 0 7 -16 4 -34z m229 -21 l-4 -55 69 -2
68 -1 -65 -6 -65 -6 -3 -57 -3 -57 83 -4 83 -3 -87 -2 -88 -2 0 125 c0 69 3
125 8 125 4 0 5 -25 4 -55z m298 -72 c-4 -130 -7 -119 -12 40 -2 53 1 87 7 87
6 0 8 -46 5 -127z"/>
</g>
</svg>
